<?xml version="1.0" encoding="utf-8"?>
<!-- Generator: Adobe Illustrator 27.6.1, SVG Export Plug-In . SVG Version: 6.00 Build 0)  -->
<svg version="1.1" id="Layer_1" xmlns="http://www.w3.org/2000/svg" xmlns:xlink="http://www.w3.org/1999/xlink" x="0px" y="0px"
	 viewBox="0 0 239.57 283.46" style="enable-background:new 0 0 239.57 283.46;" xml:space="preserve">
<style type="text/css">
	.st0{fill:#00AEEF;}
	.st1{fill:#EC008C;}
	.st2{fill:#FFF200;}
</style>
<g>
	<path class="st0" d="M17.17,133.25c3.89-4.24,8.31-7.92,13.23-11.02c2.93-1.84,5.98-3.41,9.15-4.7v-65.3
		c0-6.09,1.87-10.95,5.71-14.85c3.97-4.04,9.57-6.87,16.63-8.39c7.27-1.57,15.61-1.42,24.77,0.44c2.51,0.58,4.87,0.67,7.05,0.27
		c2.35-0.43,4.47-1.46,6.29-3.06c1.88-1.66,3.19-4,3.77-6.76l0.01-0.04c1.98-7.65-3.36-12.52-6.73-14.74C91.88,1.67,84.48,0,74.44,0
		c-9.79,0-18.92,2.33-27.11,6.91c-2.42,1.35-4.73,2.88-6.87,4.53l-1.22,0.94L38.8,10.9c-0.65-2.2-1.73-4.07-3.22-5.56
		c-2.63-2.63-6.42-3.96-11.25-3.96c-4.69,0-8.44,1.37-11.14,4.08C10.48,8.17,9.1,11.92,9.1,16.61v102.75
		c0,4.87,1.39,8.68,4.13,11.31C14.37,131.75,15.68,132.62,17.17,133.25z"/>
	<path class="st1" d="M107.27,64.93c3.34-3.22,7.53-4.86,12.45-4.86c5.11,0,9.36,1.66,12.63,4.92c0.77,0.77,1.45,1.6,2.04,2.47
		c0.02-7.7,1.65-14.59,4.83-20.47c3.23-5.97,7.52-10.51,13.12-13.86c5.51-3.31,11.98-4.99,19.23-4.99c7.24,0,13.71,1.68,19.23,4.99
		c5.58,3.35,9.83,7.87,12.99,13.83c3.14,5.94,4.74,12.89,4.74,20.66c0,7.77-1.59,14.68-4.73,20.53c-3.15,5.88-7.4,10.38-13,13.73
		c-5.52,3.31-11.98,4.98-19.23,4.98c-7.25,0-13.71-1.68-19.23-4.98c-5.6-3.36-9.9-7.86-13.13-13.76c-0.72-1.32-1.36-2.7-1.93-4.13
		v41.21c1.65-1.18,3.36-2.29,5.14-3.32c10.21-5.94,22.03-8.95,35.12-8.95c13,0,24.39,2.96,33.87,8.8c0.34,0.21,0.68,0.43,1.01,0.65
		c7.2-5.29,13.1-11.97,17.57-19.95c5.65-10.1,8.52-21.81,8.52-34.81c0-13.15-2.91-24.95-8.65-35.06
		c-5.75-10.12-13.76-18.17-23.8-23.92C196.03,2.91,184.43,0,171.57,0c-13.01,0-24.69,2.91-34.72,8.65
		c-10.05,5.75-18.06,13.8-23.8,23.92c-5.74,10.1-8.65,21.9-8.65,35.06c0,0.32,0.01,0.64,0.01,0.96
		C105.17,67.26,106.12,66.04,107.27,64.93z"/>
	<path class="st2" d="M109.64,182.69c0-13.5,2.91-25.63,8.66-36.04c4.18-7.57,9.59-14.01,16.12-19.25c0.25-0.2,0.5-0.41,0.76-0.61
		v-0.17v-1.23V77.64c0-0.46-0.02-0.9-0.05-1.34c-0.07-0.98-0.2-1.92-0.41-2.82c-0.63-2.71-1.92-5.05-3.86-6.99
		c-2.86-2.86-6.61-4.31-11.14-4.31c-4.35,0-8.05,1.44-10.98,4.27c-2.12,2.05-3.48,4.55-4.1,7.47c-0.25,1.17-0.37,2.41-0.37,3.71
		v2.35v5.57v44.78l-1.73-1.43c-3.68-3.04-7.79-5.68-12.21-7.85c-8.15-3.99-17.13-6.01-26.7-6.01c-7.81,0-15.16,1.32-21.97,3.91
		c-0.35,0.13-0.71,0.27-1.06,0.41c-0.36,0.14-0.71,0.3-1.06,0.45c-2.77,1.18-5.44,2.58-8.01,4.19c-4.49,2.83-8.55,6.17-12.16,9.98
		c-0.27,0.29-0.55,0.58-0.81,0.87c-0.26,0.29-0.52,0.58-0.78,0.87c-3.27,3.73-6.15,7.88-8.59,12.43
		c-5.4,10.08-8.14,21.61-8.14,34.29c0,12.72,2.99,24.33,8.89,34.51c5.9,10.18,14.01,18.33,24.1,24.22
		c10.11,5.91,21.61,8.9,34.18,8.9c12.57,0,24.03-3,34.08-8.91c7.76-4.57,14.35-10.5,19.67-17.68c-1.11-1.57-2.17-3.2-3.15-4.89
		C112.73,208.19,109.64,196.1,109.64,182.69z M100.34,202.77c-3.19,5.97-7.61,10.71-13.14,14.1c-5.58,3.42-11.78,5.08-18.97,5.08
		c-7.04,0-13.21-1.67-18.87-5.09c-5.61-3.39-10.11-8.14-13.37-14.11c-3.28-6-4.94-12.82-4.94-20.28c0-7.59,1.66-14.4,4.93-20.25
		c3.26-5.83,7.76-10.51,13.38-13.91c5.67-3.43,11.85-5.09,18.87-5.09c7.17,0,13.38,1.66,18.97,5.08c5.54,3.4,9.97,8.07,13.16,13.9
		c3.2,5.85,4.83,12.67,4.83,20.28C105.19,189.93,103.56,196.76,100.34,202.77z"/>
	<path d="M212.48,124.96c-0.31-0.21-0.63-0.42-0.95-0.63c-0.32-0.21-0.64-0.42-0.97-0.62c-0.09-0.05-0.17-0.11-0.26-0.17
		c-9.14-5.63-20.16-8.48-32.76-8.48c-12.72,0-24.17,2.92-34.06,8.67c-1.82,1.06-3.58,2.2-5.26,3.42c-0.31,0.23-0.62,0.46-0.93,0.69
		c0,0-0.01,0-0.01,0.01c-0.31,0.23-0.61,0.46-0.91,0.69c-0.05,0.04-0.09,0.08-0.14,0.11c-0.36,0.28-0.71,0.56-1.06,0.85
		c-6.07,4.99-11.11,11.07-15.03,18.17c-5.57,10.1-8.4,21.88-8.4,35.02c0,13.03,2.99,24.76,8.9,34.87c0.83,1.42,1.71,2.79,2.63,4.13
		c0.21,0.31,0.43,0.62,0.65,0.92c0.22,0.3,0.44,0.6,0.66,0.9c5.47,7.36,12.4,13.39,20.7,17.95c10.39,5.72,22.41,8.63,35.71,8.63
		c7.43,0,15.29-1.38,23.37-4.1c8.11-2.73,15-6.32,20.48-10.67c4.54-3.47,5.31-7.52,5.15-10.31c-0.21-3.78-2.05-7.22-5.47-10.24
		c-2.67-2.26-5.89-3.37-9.52-3.28c-3.43,0.1-6.67,1.24-9.61,3.39c-2.74,2.06-6.47,3.93-11.06,5.55c-4.55,1.61-9.04,2.43-13.35,2.43
		c-8.04,0-15.23-1.77-21.38-5.26c-6.13-3.48-11-8.28-14.48-14.27c-1.36-2.34-2.48-4.86-3.31-7.5l-0.43-1.37h82.81
		c4.05,0,7.47-1.32,10.17-3.92c2.7-2.6,4.13-6.04,4.13-9.93c0-12.61-2.41-23.95-7.16-33.7
		C226.93,137.84,220.58,130.47,212.48,124.96z M141.72,168.61l0.44-1.38c0.61-1.94,1.36-3.81,2.21-5.57
		c2.93-6.07,7.09-10.71,12.73-14.19c5.58-3.45,12.46-5.19,20.45-5.19c6.88,0,12.76,1.57,17.49,4.67c4.83,3.18,8.46,7.38,11.1,12.86
		c1.12,2.33,2.03,4.84,2.71,7.47l0.34,1.32H141.72z"/>
	<g>
		<path d="M14.3,281.28c-1.04,0.34-2.14,0.51-3.3,0.51c-1.87,0-3.49-0.36-4.87-1.09c-1.38-0.73-2.45-1.78-3.21-3.15
			c-0.76-1.38-1.13-3.04-1.13-5c0-1.42,0.21-2.7,0.64-3.83c0.43-1.13,1.04-2.1,1.83-2.9c0.79-0.8,1.74-1.41,2.85-1.84
			c1.11-0.43,2.34-0.64,3.69-0.64c1.12,0,2.15,0.15,3.09,0.45c0.93,0.3,1.76,0.76,2.49,1.37l1.01-1.4
			c-0.79-0.66-1.75-1.16-2.88-1.52c-1.14-0.36-2.42-0.54-3.85-0.54c-1.55,0-2.97,0.27-4.27,0.8c-1.3,0.54-2.42,1.29-3.38,2.27
			c-0.95,0.98-1.69,2.13-2.21,3.44C0.26,269.54,0,270.98,0,272.55c0,2.18,0.44,4.08,1.31,5.72c0.87,1.64,2.11,2.91,3.7,3.82
			c1.6,0.91,3.47,1.36,5.63,1.36c1.42,0,2.75-0.19,3.97-0.57c1.23-0.38,2.37-0.98,3.42-1.82l-0.83-1.49
			C16.31,280.37,15.34,280.94,14.3,281.28z"/>
		<path d="M52.3,275.09c0,2.25-0.56,3.93-1.69,5.04c-1.13,1.11-2.63,1.67-4.51,1.67c-1.88,0-3.38-0.56-4.51-1.67
			c-1.13-1.11-1.69-2.79-1.69-5.04v-12.94h-1.73v13.18c0,1.48,0.29,2.84,0.88,4.07c0.59,1.23,1.47,2.22,2.64,2.96
			c1.17,0.74,2.64,1.11,4.41,1.11c1.77,0,3.24-0.37,4.41-1.11c1.17-0.74,2.05-1.73,2.64-2.96c0.59-1.23,0.88-2.59,0.88-4.07v-13.18
			H52.3V275.09z"/>
		<path d="M83.34,272.19l-2.71-0.8c-1.21-0.36-2.16-0.73-2.84-1.11c-0.68-0.38-1.16-0.81-1.43-1.28c-0.27-0.47-0.41-1.02-0.41-1.63
			c0-0.88,0.22-1.63,0.66-2.24c0.44-0.61,1.06-1.07,1.85-1.38c0.79-0.31,1.7-0.47,2.74-0.47c0.68,0,1.34,0.07,2,0.2
			c0.66,0.13,1.28,0.33,1.86,0.59c0.59,0.26,1.12,0.57,1.6,0.94l0.97-1.36c-0.73-0.59-1.62-1.06-2.67-1.42
			c-1.05-0.36-2.2-0.54-3.43-0.54c-1.05,0-2.02,0.13-2.9,0.4c-0.88,0.26-1.64,0.65-2.28,1.15c-0.64,0.5-1.14,1.11-1.48,1.82
			c-0.35,0.71-0.52,1.52-0.52,2.42c0,1.32,0.43,2.4,1.27,3.24c0.85,0.84,2.17,1.53,3.97,2.06l2.5,0.75c1.82,0.54,3.06,1.14,3.73,1.8
			c0.67,0.67,1.01,1.48,1.01,2.43c0,1.34-0.51,2.36-1.54,3.05c-1.03,0.69-2.39,1.04-4.09,1.04c-0.78,0-1.52-0.07-2.24-0.22
			c-0.72-0.14-1.4-0.36-2.05-0.63c-0.65-0.28-1.24-0.62-1.79-1.03l-0.95,1.43c0.85,0.67,1.91,1.18,3.16,1.53
			c1.25,0.35,2.53,0.53,3.85,0.53c1.58,0,2.91-0.24,4-0.73c1.08-0.49,1.9-1.17,2.45-2.04c0.55-0.87,0.83-1.89,0.83-3.04
			c0-1.4-0.42-2.53-1.25-3.4C86.35,273.39,85.07,272.7,83.34,272.19z"/>
		<polygon points="108.56,263.76 114.73,263.76 114.73,283.02 116.46,283.02 116.46,263.76 122.63,263.76 122.63,262.15 
			108.56,262.15 		"/>
		<path d="M161.28,264.86c-0.98-0.99-2.13-1.77-3.44-2.33c-1.31-0.56-2.73-0.83-4.25-0.83c-1.53,0-2.95,0.27-4.27,0.82
			c-1.32,0.55-2.46,1.31-3.44,2.3c-0.98,0.98-1.74,2.14-2.29,3.46c-0.55,1.32-0.82,2.76-0.82,4.31c0,1.54,0.27,2.97,0.82,4.29
			c0.55,1.32,1.31,2.47,2.29,3.46c0.98,0.98,2.13,1.75,3.44,2.3c1.32,0.55,2.74,0.83,4.27,0.83c1.52,0,2.94-0.28,4.25-0.83
			c1.31-0.55,2.46-1.32,3.44-2.3s1.75-2.14,2.3-3.46c0.55-1.32,0.83-2.75,0.83-4.29c0-1.52-0.28-2.94-0.83-4.26
			C163.03,267.01,162.26,265.85,161.28,264.86z M161.92,276.35c-0.47,1.13-1.11,2.1-1.94,2.91c-0.82,0.81-1.78,1.43-2.88,1.87
			c-1.09,0.44-2.27,0.66-3.52,0.66c-1.67,0-3.19-0.38-4.55-1.15c-1.37-0.77-2.45-1.84-3.26-3.22c-0.81-1.38-1.22-3-1.22-4.85
			c0-1.39,0.23-2.65,0.7-3.78c0.47-1.13,1.11-2.1,1.94-2.91c0.82-0.81,1.78-1.43,2.88-1.87c1.09-0.44,2.27-0.66,3.52-0.66
			c1.67,0,3.19,0.38,4.55,1.15c1.37,0.77,2.45,1.84,3.26,3.22c0.81,1.38,1.22,3,1.22,4.84
			C162.62,273.96,162.38,275.22,161.92,276.35z"/>
		<polygon points="195.01,276.19 186.23,262.15 184.53,262.15 184.53,283.02 186.11,283.02 186.11,265.21 194.07,277.95 
			195.66,277.95 203.44,265.45 203.44,283.02 205.17,283.02 205.17,262.15 203.56,262.15 		"/>
		<path d="M238.32,274.25c-0.83-0.86-2.12-1.55-3.85-2.06l-2.71-0.8c-1.21-0.36-2.16-0.73-2.84-1.11c-0.68-0.38-1.16-0.81-1.43-1.28
			c-0.27-0.47-0.41-1.02-0.41-1.63c0-0.88,0.22-1.63,0.66-2.24c0.44-0.61,1.06-1.07,1.85-1.38c0.79-0.31,1.7-0.47,2.74-0.47
			c0.68,0,1.34,0.07,2,0.2c0.66,0.13,1.28,0.33,1.86,0.59c0.59,0.26,1.12,0.57,1.59,0.94l0.97-1.36c-0.73-0.59-1.62-1.06-2.67-1.42
			c-1.05-0.36-2.2-0.54-3.43-0.54c-1.05,0-2.02,0.13-2.9,0.4c-0.88,0.26-1.64,0.65-2.28,1.15c-0.64,0.5-1.14,1.11-1.48,1.82
			c-0.35,0.71-0.52,1.52-0.52,2.42c0,1.32,0.42,2.4,1.27,3.24c0.85,0.84,2.17,1.53,3.97,2.06l2.5,0.75c1.82,0.54,3.06,1.14,3.73,1.8
			c0.67,0.67,1.01,1.48,1.01,2.43c0,1.34-0.51,2.36-1.54,3.05c-1.03,0.69-2.39,1.04-4.09,1.04c-0.78,0-1.52-0.07-2.24-0.22
			c-0.72-0.14-1.4-0.36-2.05-0.63c-0.65-0.28-1.24-0.62-1.79-1.03l-0.95,1.43c0.85,0.67,1.91,1.18,3.16,1.53
			c1.25,0.35,2.53,0.53,3.85,0.53c1.58,0,2.91-0.24,4-0.73c1.08-0.49,1.9-1.17,2.45-2.04c0.55-0.87,0.83-1.89,0.83-3.04
			C239.57,276.25,239.16,275.12,238.32,274.25z"/>
	</g>
</g>
</svg>
